PathFileType  4	(X/Y/Z) C:\Users\antoi\Documents\MyRepositories\mobilecap\ResultsAnalysis
DataRate	CameraRate	NumFrames	NumMarkers	Units	OrigDataRate	OrigDataStartFrame	OrigNumFrames
100.0	100.0	6	51	mm	100.0	74	294
Frame#	Time	r_knee			r_shank_antsup			r_ankle			r_calc			r_5meta			r_toe			L_knee			L_shank_antsup			L_ankle			L_calc			L_5meta			L_toe			r_sh2			r_sh3			r_sh4			L_sh2			L_sh3			r_thigh1			r_thigh2			r_thigh3			r_thigh4			r_thigh5			L_thigh1			L_thigh2			L_thigh3			L_thigh4			r.ASIS			r.PSIS			L.ASIS			L.PSIS			C7			R_Shoulder			L_Shoulder			R_Sternum			L_Sternum			R_humerus			R_elbow_med			R_elbow_lat			R_forearm			R_wrist_radius			R_wrist_ulna			L_humerus			L_elbow_med			L_elbow_lat			L_forearm			L_wrist_radius			L_wrist_ulna			R_HJC			L_HJC			R_HJC_reg			L_HJC_reg			
		X1	Y1	Z1	X2	Y2	Z2	X3	Y3	Z3	X4	Y4	Z4	X5	Y5	Z5	X6	Y6	Z6	X7	Y7	Z7	X8	Y8	Z8	X9	Y9	Z9	X10	Y10	Z10	X11	Y11	Z11	X12	Y12	Z12	X13	Y13	Z13	X14	Y14	Z14	X15	Y15	Z15	X16	Y16	Z16	X17	Y17	Z17	X18	Y18	Z18	X19	Y19	Z19	X20	Y20	Z20	X21	Y21	Z21	X22	Y22	Z22	X23	Y23	Z23	X24	Y24	Z24	X25	Y25	Z25	X26	Y26	Z26	X27	Y27	Z27	X28	Y28	Z28	X29	Y29	Z29	X30	Y30	Z30	X31	Y31	Z31	X32	Y32	Z32	X33	Y33	Z33	X34	Y34	Z34	X35	Y35	Z35	X36	Y36	Z36	X37	Y37	Z37	X38	Y38	Z38	X39	Y39	Z39	X40	Y40	Z40	X41	Y41	Z41	X42	Y42	Z42	X43	Y43	Z43	X44	Y44	Z44	X45	Y45	Z45	X46	Y46	Z46	X47	Y47	Z47	X48	Y48	Z48	X49	Y49	Z49	X50	Y50	Z50	X51	Y51	Z51	

74	0.73000000	-1155.78757	770.59996	-425.33113	-1132.98317	651.07721	-442.26756	-1255.10954	398.25748	-451.47139	-1305.52339	356.88022	-498.26159	-1141.81467	353.24850	-419.38767	-1107.13101	374.09611	-463.30638	-1153.63042	772.75409	-739.66568	-1125.90364	659.75771	-700.47140	-1261.31023	397.26640	-724.92357	-1307.85297	363.80924	-686.88293	-1143.88447	347.27240	-742.46505	-1105.01786	368.13490	-690.42893	-1167.06129	544.79686	-452.04900	-1186.48077	662.06826	-388.53957	-1235.47278	563.67920	-406.37441	-1174.62847	693.59972	-766.57908	-1211.67417	577.44540	-776.99243	-1124.84692	1079.05903	-424.50798	-1101.66101	973.28620	-423.80143	-1140.15439	937.63602	-382.55634	-1225.72133	1054.71114	-382.56319	-1196.32094	942.91926	-379.70208	-1143.68440	1065.88715	-761.59826	-1102.24083	933.25440	-756.69336	-1250.57393	1040.96493	-783.67777	-1208.16241	905.67127	-772.07381	-1104.89750	1194.51290	-465.57153	-1256.41995	1307.98808	-529.09193	-1108.67086	1193.16758	-709.34804	-1261.48810	1309.91044	-646.66766	-1040.61274	1709.52235	-585.57483	-997.08732	1657.89927	-432.89675	-990.37463	1662.56758	-741.72989	-948.55858	1612.82827	-565.45704	-947.66212	1610.68002	-606.28157	-1045.22585	1543.83840	-359.54579	-1217.06834	1424.22210	-407.00624	-1191.21619	1417.84307	-334.21446	-1227.66945	1297.82388	-306.36101	-1274.67863	1204.52707	-298.63777	-1299.54013	1224.52054	-276.71193	-1051.28030	1525.69142	-809.87516	-1217.69406	1413.87669	-756.94123	-1197.43205	1414.25648	-830.69663	-1215.52018	1319.84487	-860.77352	-1272.33300	1198.24416	-862.83239	-1294.17511	1214.58576	-882.95381	-1216.88484	1165.84403	-488.54440	-1217.63021	1160.25503	-677.83841	-1198.04111	1158.93254	-496.24667	-1204.96994	1161.56068	-656.98986	
75	0.74000000	-1153.35515	769.88792	-425.28176	-1131.00273	650.20941	-442.28677	-1254.84456	398.84613	-450.86995	-1305.48516	356.87274	-498.20948	-1141.79003	353.18887	-419.35397	-1107.05905	373.92343	-463.30424	-1150.87881	772.04332	-739.51910	-1123.87569	658.83231	-700.07959	-1261.12225	397.25268	-724.66112	-1307.89171	363.68903	-686.53418	-1143.86344	347.27564	-742.45772	-1104.96225	368.04692	-690.38540	-1165.83517	544.15813	-452.21151	-1184.56841	661.48463	-388.49302	-1234.21205	563.52441	-406.35471	-1172.25372	693.01336	-766.27103	-1210.12821	577.19253	-777.00800	-1123.71455	1078.46571	-424.26220	-1100.02802	972.74707	-423.48386	-1138.21986	936.72805	-382.39403	-1224.43008	1053.61508	-382.15578	-1194.42122	941.93540	-379.54589	-1142.48085	1065.00343	-761.09011	-1100.37800	932.70877	-756.46533	-1249.33113	1039.54634	-783.27957	-1206.12331	904.53351	-771.70004	-1103.73188	1192.86596	-464.94254	-1254.45480	1307.30672	-528.91857	-1107.69672	1190.86089	-708.81104	-1259.44949	1309.19695	-646.37469	-1035.24283	1706.66579	-585.44574	-991.72163	1654.61166	-432.72487	-985.06169	1659.17222	-741.52249	-943.72914	1609.41622	-565.37624	-942.69720	1607.29929	-605.90547	-1040.50370	1540.62823	-359.41347	-1212.70290	1421.55209	-407.05483	-1187.06868	1415.12373	-334.28956	-1224.00618	1295.37467	-306.51500	-1271.42679	1202.28524	-298.67450	-1296.28297	1222.45937	-276.84341	-1046.86703	1522.45212	-809.59839	-1213.53567	1411.14207	-756.29690	-1193.47969	1411.40877	-830.00705	-1211.87885	1317.02594	-860.11108	-1268.68325	1195.50153	-861.67561	-1290.57167	1211.56389	-881.55812	-1216.03735	1165.05802	-487.90365	-1216.87208	1158.97287	-677.18036	-1197.26976	1157.59757	-495.65387	-1204.10794	1160.18538	-656.46886	
76	0.75000000	-1150.75835	769.18451	-425.17704	-1128.90538	649.32735	-442.18324	-1254.50809	398.92455	-450.93041	-1305.43507	356.89106	-498.18633	-1141.75376	353.13845	-419.31491	-1106.98364	373.74790	-463.33087	-1147.95660	771.39472	-739.28591	-1121.89314	657.87313	-699.68548	-1260.94138	397.25572	-724.46999	-1307.88816	363.69356	-686.49867	-1143.84011	347.28530	-742.44269	-1104.92939	367.98420	-690.33895	-1164.55249	543.41805	-452.40739	-1182.57468	660.79989	-388.49257	-1232.71942	563.21733	-406.48608	-1169.86227	692.32478	-765.85082	-1208.39339	576.83511	-776.56686	-1122.50740	1077.78141	-424.19505	-1098.24362	972.19852	-423.17443	-1136.28015	936.01385	-382.08718	-1223.07218	1052.39644	-381.85188	-1192.41138	940.86491	-379.38191	-1141.13255	1064.16840	-760.63773	-1098.44353	931.94030	-756.42223	-1247.83608	1038.21873	-782.67373	-1204.04133	903.42231	-771.25996	-1102.51481	1191.13024	-464.38794	-1252.35632	1306.53702	-528.78196	-1106.76123	1188.34695	-708.13393	-1257.32890	1308.38339	-646.08786	-1029.89779	1703.66915	-585.36349	-986.37859	1651.24252	-432.50676	-979.70186	1655.72777	-741.42975	-938.17788	1605.52842	-564.61512	-937.76671	1603.83373	-605.67180	-1035.71688	1537.17969	-359.44243	-1208.02975	1418.61471	-407.21292	-1182.66011	1412.15299	-334.31437	-1219.92927	1292.60253	-306.48575	-1267.60068	1199.53468	-298.77323	-1292.45858	1219.90274	-276.91045	-1042.25781	1519.05894	-809.27781	-1209.04702	1408.04553	-755.65228	-1189.16319	1408.14224	-829.41211	-1207.77343	1313.81831	-859.27757	-1264.44084	1192.25557	-860.53782	-1286.47065	1207.93779	-880.01598	-1215.15046	1164.22784	-487.20360	-1216.12888	1157.54767	-676.45976	-1196.41722	1156.20895	-495.05433	-1203.23096	1158.73886	-655.79837	
77	0.76000000	-1148.10034	768.28834	-425.21303	-1126.72161	648.41726	-442.08398	-1254.31850	398.69438	-451.33818	-1305.39689	356.94028	-498.28832	-1141.71779	353.08373	-419.32445	-1106.93765	373.56871	-463.36473	-1145.13617	770.81090	-738.85301	-1119.83927	656.82360	-699.26290	-1260.74783	397.25929	-724.25892	-1307.88225	363.72846	-686.53115	-1143.82916	347.28687	-742.42907	-1104.91860	367.90608	-690.30671	-1163.27412	542.54958	-452.56811	-1180.37425	660.01543	-388.62019	-1231.11740	563.00438	-406.65726	-1167.52163	691.67339	-765.55684	-1206.72599	576.58511	-776.08155	-1121.16840	1077.03408	-423.99873	-1096.30053	971.63036	-422.93368	-1134.18141	935.27783	-381.85360	-1221.45922	1051.25797	-381.30981	-1190.30936	939.77361	-379.09873	-1139.68143	1063.34040	-760.46065	-1096.48295	931.26357	-756.38887	-1246.27946	1037.00672	-782.24549	-1201.88602	902.33213	-770.84172	-1101.28913	1189.08954	-464.24382	-1250.15424	1305.63489	-528.47911	-1105.56149	1186.09548	-707.72674	-1255.09294	1307.47294	-645.87866	-1024.63099	1700.67915	-585.28722	-981.08847	1647.90837	-432.08011	-974.37403	1652.16385	-741.34389	-932.07938	1601.33759	-563.43173	-932.85569	1600.34655	-605.64701	-1030.82020	1533.57898	-359.66364	-1203.21574	1415.33804	-407.35550	-1177.96640	1408.88955	-334.33410	-1215.44128	1289.47322	-306.32689	-1263.19264	1196.39342	-298.81152	-1288.11749	1216.78798	-277.08809	-1037.40405	1515.42972	-808.78990	-1204.28045	1404.55060	-755.13853	-1184.49213	1404.49410	-828.99525	-1203.12603	1310.18754	-858.51187	-1259.70156	1188.39617	-859.38775	-1281.80177	1204.01075	-878.67376	-1214.12357	1163.07606	-486.86671	-1215.18784	1156.25955	-676.11869	-1195.43734	1154.89417	-494.87011	-1202.19229	1157.40807	-655.44406	
78	0.77000000	-1145.38162	767.29967	-425.26332	-1124.49236	647.42861	-442.10478	-1254.30869	398.50783	-451.73002	-1305.39650	356.96753	-498.34800	-1141.69101	353.01407	-419.36829	-1106.91648	373.35367	-463.39804	-1142.43880	770.06286	-738.27692	-1117.58192	655.67847	-698.82389	-1260.54429	397.27195	-724.01490	-1307.89657	363.67537	-686.43581	-1143.84082	347.28701	-742.44049	-1104.92795	367.78035	-690.26508	-1161.99284	541.69523	-452.72564	-1177.95879	659.19110	-388.77204	-1229.42458	562.64716	-406.74251	-1165.08542	691.06844	-765.23939	-1205.19719	576.24932	-775.96370	-1119.60131	1076.25139	-423.64814	-1094.23809	971.00613	-422.71978	-1131.86302	934.42151	-381.77669	-1219.64158	1050.17346	-380.60026	-1188.12443	938.67924	-378.84514	-1138.09752	1062.41791	-760.54408	-1094.48369	930.89453	-756.22647	-1244.66022	1035.77468	-782.06505	-1199.67460	901.22406	-770.55961	-1099.92486	1186.90084	-464.28978	-1247.82897	1304.67972	-528.16488	-1104.02887	1184.17597	-707.52805	-1252.69786	1306.51041	-645.67379	-1019.34283	1697.74973	-585.14838	-975.80656	1644.59261	-431.60570	-969.08517	1648.54575	-741.16945	-926.43341	1597.53365	-562.64461	-927.91772	1596.87951	-605.55946	-1025.77752	1529.91253	-359.87284	-1198.26886	1411.55494	-407.31212	-1172.99519	1405.22032	-334.42613	-1210.51235	1285.96077	-306.23178	-1258.19081	1192.87053	-298.69029	-1283.25954	1213.14771	-277.32352	-1032.32435	1511.56704	-808.24812	-1199.23765	1400.67492	-754.74204	-1179.45188	1400.49025	-828.62242	-1198.00534	1305.99611	-857.73416	-1254.40327	1184.08256	-858.14752	-1276.45277	1199.81990	-877.71397	-1212.87348	1161.73619	-486.79790	-1213.93113	1155.12606	-676.05747	-1194.25296	1153.69378	-494.91118	-1200.89930	1156.19279	-655.32410	
79	0.78000000	-1142.48601	766.45239	-425.05407	-1122.11630	646.38233	-442.25767	-1254.23619	398.50328	-451.97465	-1305.42389	356.96182	-498.25955	-1141.67749	352.93537	-419.40269	-1106.88311	373.07247	-463.46094	-1139.52429	769.20047	-737.89307	-1115.19412	654.49618	-698.49761	-1260.34026	397.33659	-723.83468	-1307.94038	363.51425	-686.18683	-1143.86905	347.29928	-742.47367	-1104.94715	367.65541	-690.18551	-1160.66650	540.96191	-452.93940	-1175.47070	658.37225	-388.88930	-1227.72011	562.02931	-406.76021	-1162.49125	690.35991	-764.69980	-1203.69042	575.73120	-776.07337	-1117.78399	1075.36931	-423.44513	-1092.10813	970.30705	-422.45921	-1129.46662	933.47055	-381.71022	-1217.93374	1048.83076	-380.45998	-1185.86689	937.51388	-378.75834	-1136.32805	1061.40746	-760.69440	-1092.30549	930.45229	-756.15564	-1242.82143	1034.47607	-781.80198	-1197.43063	900.07892	-770.39227	-1098.29725	1184.79873	-464.13109	-1245.36061	1303.70485	-527.96088	-1102.30321	1182.29494	-707.17954	-1250.18786	1305.50893	-645.37423	-1014.00357	1694.80426	-584.96872	-970.58513	1641.17358	-431.32035	-963.85739	1644.92500	-740.94640	-921.43419	1594.21404	-562.39371	-923.00084	1593.46159	-605.28665	-1020.61800	1526.07300	-359.96899	-1192.97967	1407.32721	-407.22836	-1167.72714	1401.13307	-334.54378	-1205.08165	1282.06968	-306.21691	-1252.57313	1188.86716	-298.54961	-1277.77872	1209.05119	-277.40831	-1027.08074	1507.56875	-807.68097	-1193.86812	1396.41575	-754.40694	-1173.99039	1396.06975	-828.11177	-1192.42929	1301.26677	-856.65117	-1248.41618	1179.48486	-856.89452	-1270.45661	1195.17828	-876.87789	-1211.39863	1160.44342	-486.60614	-1212.41995	1153.94201	-675.86960	-1192.79818	1152.49099	-494.72460	-1199.38780	1154.95371	-655.01251	
